<svg viewBox="0 0 1120 470" xmlns="http://www.w3.org/2000/svg">
<line x1="150" y1="20" x2="150" y2="430" stroke="#cfc9bd"/>
<text x="150" y="456" text-anchor="middle" fill="#8a8175" font-size="13" font-family="IBM Plex Mono, monospace">0</text>
<line x1="375" y1="20" x2="375" y2="430" stroke="#cfc9bd"/>
<text x="375" y="456" text-anchor="middle" fill="#8a8175" font-size="13" font-family="IBM Plex Mono, monospace">2,500</text>
<line x1="600" y1="20" x2="600" y2="430" stroke="#cfc9bd"/>
<text x="600" y="456" text-anchor="middle" fill="#8a8175" font-size="13" font-family="IBM Plex Mono, monospace">5,000</text>
<line x1="825" y1="20" x2="825" y2="430" stroke="#cfc9bd"/>
<text x="825" y="456" text-anchor="middle" fill="#8a8175" font-size="13" font-family="IBM Plex Mono, monospace">7,500</text>
<line x1="1050" y1="20" x2="1050" y2="430" stroke="#cfc9bd"/>
<text x="1050" y="456" text-anchor="middle" fill="#8a8175" font-size="13" font-family="IBM Plex Mono, monospace">10,000</text>
<text x="138" y="46" text-anchor="end" fill="#211d18" font-size="16" font-family="IBM Plex Mono, monospace">Fluorita</text>
<rect x="150" y="30" width="900" height="22" rx="4" fill="#e6e3db"/>
<rect x="150" y="30" width="900" height="22" rx="4" fill="#8a3221"/>
<text x="1060" y="46" fill="#211d18" font-size="15" font-weight="500" font-family="IBM Plex Mono, monospace">10,000</text>
<text x="138" y="86" text-anchor="end" fill="#211d18" font-size="16" font-family="IBM Plex Mono, monospace">Grafito</text>
<rect x="150" y="70" width="900" height="22" rx="4" fill="#e6e3db"/>
<rect x="150" y="70" width="900" height="22" rx="4" fill="#8a3221"/>
<text x="1060" y="86" fill="#211d18" font-size="15" font-weight="500" font-family="IBM Plex Mono, monospace">10,000</text>
<text x="138" y="128" text-anchor="end" fill="#211d18" font-size="16" font-family="IBM Plex Mono, monospace">Manganeso</text>
<rect x="150" y="112" width="900" height="22" rx="4" fill="#e6e3db"/>
<rect x="150" y="112" width="900" height="22" rx="4" fill="#8a3221"/>
<text x="1060" y="128" fill="#211d18" font-size="15" font-weight="500" font-family="IBM Plex Mono, monospace">10,000</text>
<text x="138" y="168" text-anchor="end" fill="#211d18" font-size="16" font-family="IBM Plex Mono, monospace">Sílice</text>
<rect x="150" y="152" width="900" height="22" rx="4" fill="#e6e3db"/>
<rect x="150" y="152" width="600" height="22" rx="4" fill="#8a3221"/>
<text x="760" y="168" fill="#211d18" font-size="15" font-weight="500" font-family="IBM Plex Mono, monospace">6,670</text>
<text x="138" y="210" text-anchor="end" fill="#211d18" font-size="16" font-family="IBM Plex Mono, monospace">Cobre</text>
<rect x="150" y="194" width="900" height="22" rx="4" fill="#e6e3db"/>
<rect x="150" y="194" width="339" height="22" rx="4" fill="#b0571e"/>
<text x="499" y="210" fill="#211d18" font-size="15" font-weight="500" font-family="IBM Plex Mono, monospace">3,764</text>
<text x="138" y="250" text-anchor="end" fill="#211d18" font-size="16" font-family="IBM Plex Mono, monospace">Plomo</text>
<rect x="150" y="234" width="900" height="22" rx="4" fill="#e6e3db"/>
<rect x="150" y="234" width="164" height="22" rx="4" fill="#b98a1e"/>
<text x="324" y="250" fill="#211d18" font-size="15" font-weight="500" font-family="IBM Plex Mono, monospace">1,823</text>
<text x="138" y="292" text-anchor="end" fill="#211d18" font-size="16" font-family="IBM Plex Mono, monospace">Zinc</text>
<rect x="150" y="276" width="900" height="22" rx="4" fill="#e6e3db"/>
<rect x="150" y="276" width="140" height="22" rx="4" fill="#b98a1e"/>
<text x="300" y="292" fill="#211d18" font-size="15" font-weight="500" font-family="IBM Plex Mono, monospace">1,551</text>
<text x="138" y="332" text-anchor="end" fill="#211d18" font-size="16" font-family="IBM Plex Mono, monospace">Barita</text>
<rect x="150" y="316" width="900" height="22" rx="4" fill="#e6e3db"/>
<rect x="150" y="316" width="124" height="22" rx="4" fill="#8a8175"/>
<text x="284" y="332" fill="#211d18" font-size="15" font-weight="500" font-family="IBM Plex Mono, monospace">1,380</text>
<text x="138" y="374" text-anchor="end" fill="#211d18" font-size="16" font-family="IBM Plex Mono, monospace">Plata</text>
<rect x="150" y="358" width="900" height="22" rx="4" fill="#e6e3db"/>
<rect x="150" y="358" width="82" height="22" rx="4" fill="#8a8175"/>
<text x="242" y="374" fill="#211d18" font-size="15" font-weight="500" font-family="IBM Plex Mono, monospace">914</text>
<text x="138" y="414" text-anchor="end" fill="#211d18" font-size="16" font-family="IBM Plex Mono, monospace">Oro</text>
<rect x="150" y="398" width="900" height="22" rx="4" fill="#e6e3db"/>
<rect x="150" y="398" width="28" height="22" rx="4" fill="#8a8175"/>
<text x="188" y="414" fill="#211d18" font-size="15" font-weight="500" font-family="IBM Plex Mono, monospace">312</text>
</svg>